<?xml version="1.0" standalone="no"?>
<!DOCTYPE svg PUBLIC "-//W3C//DTD SVG 20010904//EN"
 "http://www.w3.org/TR/2001/REC-SVG-20010904/DTD/svg10.dtd">
<svg version="1.0" xmlns="http://www.w3.org/2000/svg"
 width="1256.000000pt" height="636.000000pt" viewBox="0 0 1256.000000 636.000000"
 preserveAspectRatio="xMidYMid meet">

<g transform="translate(0.000000,636.000000) scale(0.100000,-0.100000)"
fill="#000000" stroke="none">
<path d="M0 3180 l0 -3180 1540 0 c1315 0 1539 2 1534 14 -3 8 0 17 7 22 8 4
10 3 5 -4 -5 -8 2 -12 18 -12 14 0 26 5 26 10 0 16 21 12 39 -7 24 -27 37 -25
66 9 19 23 25 38 20 56 -5 22 -4 23 10 9 20 -21 19 -27 -11 -62 l-26 -30 1573
-3 c1391 -2 1574 0 1582 13 11 20 58 20 51 0 -5 -11 1 -15 22 -15 l28 0 -22
16 c-57 40 2 122 66 92 37 -18 43 -69 10 -92 -21 -15 -17 -16 80 -16 l102 0 0
201 c0 181 -2 201 -16 195 -25 -10 -168 -15 -564 -21 -201 -3 -417 -8 -480
-10 -63 -2 -218 -7 -345 -10 -126 -3 -277 -8 -335 -11 -58 -2 -192 -6 -298 -9
-167 -3 -192 -2 -181 11 6 8 17 14 23 14 8 0 11 68 11 243 0 184 3 248 13 259
7 9 12 20 11 24 -7 38 -2 39 119 32 135 -8 272 -32 284 -50 4 -7 7 -24 6 -38
-3 -21 -9 -25 -40 -28 -35 -3 -38 -1 -38 22 0 33 -21 42 -95 45 -33 1 -74 4
-91 7 -31 6 -72 -9 -86 -30 -4 -6 -5 -20 -2 -32 3 -12 11 -90 17 -175 l12
-154 28 -3 c16 -2 39 5 56 17 35 26 47 26 60 4 7 -12 13 -14 18 -7 5 6 20 10
35 9 30 -2 50 20 62 68 8 33 -10 36 -46 7 -14 -10 -28 -17 -31 -14 -6 6 30
101 46 122 14 18 38 14 44 -8 3 -11 14 -20 24 -20 10 0 24 -10 30 -22 7 -13
21 -29 32 -37 13 -10 17 -21 14 -40 -6 -31 24 -74 50 -69 10 2 24 23 34 51 18
50 36 70 77 87 75 31 161 -14 162 -85 0 -32 -30 -74 -68 -94 -16 -8 -22 -20
-20 -34 3 -21 7 -22 120 -22 64 0 120 3 124 7 4 5 0 16 -9 26 -19 21 -13 32
15 32 19 0 24 15 8 25 -5 3 -10 15 -10 25 0 10 -9 22 -21 25 -38 12 -3 28 68
31 282 12 365 14 571 18 128 2 231 2 230 0 -8 -8 -440 -33 -451 -27 -14 8
-137 -8 -137 -18 0 -5 11 -9 24 -9 13 0 26 -7 30 -15 3 -8 13 -15 23 -16 10
-1 0 -7 -22 -14 -38 -13 -32 -14 87 -14 100 -1 130 2 142 14 17 18 43 20 48 4
2 -7 57 -13 146 -16 l142 -6 0 -25 0 -24 163 7 c89 4 165 9 168 10 3 2 2 34
-2 72 -7 61 -6 81 6 148 2 11 4 102 4 202 l1 181 68 4 c86 5 96 1 100 -42 4
-52 4 -161 0 -195 -2 -25 1 -31 20 -33 12 -2 22 -10 22 -17 0 -24 43 -45 81
-40 109 15 211 24 349 29 399 16 738 26 1235 37 429 9 548 15 580 27 158 58
172 61 245 62 41 0 82 5 90 11 11 7 -128 9 -470 4 -267 -4 -493 -3 -502 0 -15
6 -18 20 -18 86 l0 79 670 0 670 0 0 -58 c0 -35 -6 -66 -15 -79 -14 -21 -13
-24 32 -68 l48 -46 115 7 c63 3 138 6 165 5 28 -1 256 -1 508 -1 l457 0 0
-405 0 -405 695 0 695 0 0 3180 0 3180 -6280 0 -6280 0 0 -3180z m10766 2953
c3 -10 10 -26 15 -35 5 -10 9 -29 9 -43 0 -24 -3 -25 -55 -25 -51 0 -55 2 -55
24 0 21 11 49 33 84 12 18 47 15 53 -5z m-1813 -40 c7 2 11 12 11 21 -1 9 2
16 7 16 18 0 9 -42 -10 -47 -11 -3 -22 -12 -24 -22 -3 -9 -5 4 -4 29 0 25 2
35 4 22 3 -13 10 -21 16 -19z m405 17 c-10 -16 -10 -24 0 -41 11 -18 11 -20 0
-17 -18 6 -23 59 -6 69 19 12 20 11 6 -11z m214 -20 c4 -48 -8 -54 -15 -7 -4
29 -1 47 8 47 1 0 5 -18 7 -40z m412 26 c-3 -9 3 -17 15 -21 21 -6 30 -45 10
-45 -5 0 -7 5 -3 11 4 7 -3 19 -16 29 -13 10 -20 22 -16 29 10 16 16 14 10 -3z
m411 -32 c0 -19 -3 -34 -7 -34 -5 0 -8 19 -8 42 0 23 3 38 7 34 4 -4 8 -23 8
-42z m497 6 c2 -22 0 -40 -4 -40 -5 0 -8 18 -8 40 0 22 2 40 4 40 2 0 6 -18 8
-40z m-1880 -10 c-2 -16 -8 -30 -13 -30 -5 0 -9 14 -9 30 0 18 5 30 13 30 9 0
12 -10 9 -30z m35 -17 c-3 -10 -5 -2 -5 17 0 19 2 27 5 18 2 -10 2 -26 0 -35z
m33 32 c0 -8 5 -15 10 -15 6 0 10 7 10 15 0 8 4 15 9 15 6 0 6 -12 0 -30 -6
-16 -15 -30 -19 -30 -4 0 -13 14 -19 30 -6 18 -6 30 0 30 5 0 9 -7 9 -15z m90
-15 c0 -16 -4 -30 -10 -30 -5 0 -7 7 -3 16 4 12 2 15 -8 12 -8 -3 -13 -11 -11
-17 1 -6 -2 -11 -8 -11 -18 0 -10 29 10 35 11 4 18 11 15 16 -4 5 -1 9 4 9 6
0 11 -13 11 -30z m35 1 c0 -22 -3 -27 -12 -19 -9 7 -10 16 -2 29 13 25 14 24
14 -10z m55 7 l9 -23 7 23 c3 12 10 22 15 22 13 0 -26 -83 -42 -88 -12 -3 -12
-2 0 6 11 8 11 16 2 42 -13 38 -13 40 -6 40 3 0 10 -10 15 -22z m175 12 c-3
-5 1 -10 10 -10 9 0 13 5 10 10 -3 6 -1 10 4 10 6 0 11 -7 11 -15 0 -9 -9 -15
-21 -15 -15 0 -19 -5 -15 -15 3 -8 1 -15 -3 -15 -13 0 -21 27 -15 45 4 8 10
15 16 15 5 0 6 -4 3 -10z m67 -20 c-2 -16 -8 -30 -13 -30 -5 0 -9 14 -9 30 0
18 5 30 13 30 9 0 12 -10 9 -30z m38 0 c0 -16 -2 -30 -4 -30 -2 0 -6 14 -8 30
-3 17 -1 30 4 30 4 0 8 -13 8 -30z m75 20 c-3 -5 1 -10 10 -10 10 0 13 5 9 12
-4 7 -3 8 4 4 21 -12 13 -26 -14 -26 -22 0 -25 -2 -14 -15 9 -11 9 -15 1 -15
-6 0 -14 7 -17 15 -8 19 2 45 16 45 6 0 8 -4 5 -10z m59 -17 c-10 -40 -14 -41
-14 -5 0 18 5 32 10 32 6 0 8 -11 4 -27z m378 -3 c3 -16 1 -30 -4 -30 -4 0 -8
14 -8 30 0 17 2 30 4 30 2 0 6 -13 8 -30z m38 0 c0 -16 -4 -30 -8 -30 -5 0 -7
14 -4 30 2 17 6 30 8 30 2 0 4 -13 4 -30z m75 0 c0 -18 -6 -26 -22 -28 -12 -2
-24 -11 -26 -20 -3 -9 -5 5 -6 31 -1 47 0 48 27 45 21 -2 27 -8 27 -28z m40 0
c0 -16 -3 -30 -7 -30 -3 0 -9 -8 -11 -17 -3 -10 -5 3 -6 30 -1 31 3 47 12 47
7 0 12 -13 12 -30z m35 6 c0 -14 -3 -27 -7 -29 -5 -3 -8 8 -8 24 0 16 3 29 8
29 4 0 7 -11 7 -24z m30 9 c-10 -12 -10 -18 0 -30 9 -11 9 -15 1 -15 -15 0
-25 26 -17 45 3 8 11 15 17 15 8 0 8 -4 -1 -15z m44 0 c6 -16 -2 -45 -13 -45
-3 0 -6 14 -6 30 0 32 9 40 19 15z m40 7 c-7 -4 -14 -18 -17 -32 -4 -21 -4
-20 -6 8 -1 24 3 32 17 32 11 0 13 -3 6 -8z m596 -7 c-10 -12 -10 -18 0 -30 9
-11 9 -15 1 -15 -15 0 -25 26 -17 45 3 8 11 15 17 15 8 0 8 -4 -1 -15z m44 0
c6 -16 -2 -45 -13 -45 -3 0 -6 14 -6 30 0 32 9 40 19 15z m31 -15 c0 -16 -3
-30 -7 -30 -10 0 -10 44 -1 53 3 4 7 7 7 7 1 0 1 -13 1 -30z m45 -4 c0 -38
-20 -60 -47 -53 -14 4 -14 5 4 6 19 1 22 6 20 41 -2 27 2 40 10 40 8 0 13 -13
13 -34z m17 -13 c-3 -10 -5 -2 -5 17 0 19 2 27 5 18 2 -10 2 -26 0 -35z m45
17 c-2 -16 -8 -30 -13 -30 -5 0 -9 14 -9 30 0 18 5 30 13 30 9 0 12 -10 9 -30z
m38 -6 c0 -35 -15 -30 -17 6 -1 18 2 28 7 25 6 -4 10 -17 10 -31z m-95 -459
c68 -42 98 -100 93 -181 -4 -70 -30 -116 -86 -155 l-36 -24 -471 0 -471 0 -42
27 c-99 66 -115 207 -34 298 60 68 73 69 568 67 l431 -2 48 -30z m-8712 -53
c23 -23 31 -42 35 -80 5 -58 -11 -100 -33 -82 -11 9 -11 18 -4 38 20 52 -16
115 -73 127 -94 21 -157 -97 -89 -166 23 -22 39 -29 69 -29 43 0 75 -23 46
-34 -23 -9 -69 -7 -97 3 -69 26 -104 117 -72 184 20 44 34 56 81 72 49 16 99
4 137 -33z m-953 -102 c0 -123 -1 -130 -20 -130 -19 0 -20 7 -20 130 0 123 1
130 20 130 19 0 20 -7 20 -130z m600 26 c0 -89 -3 -107 -21 -130 -46 -58 -149
-19 -149 57 0 62 63 112 110 87 19 -10 20 -7 20 33 0 46 5 57 27 57 10 0 13
-24 13 -104z m90 73 c0 -12 -7 -19 -19 -19 -26 0 -36 17 -21 35 15 18 40 8 40
-16z m-518 -77 c10 -9 20 -31 24 -49 l6 -32 -68 -3 -69 -3 28 -19 c25 -17 29
-17 50 -3 16 10 28 12 38 6 22 -15 -25 -49 -67 -49 -64 0 -100 65 -70 126 25
54 87 67 128 26z m193 18 l30 0 -3 -83 -3 -83 -59 -2 c-42 -1 -63 3 -75 14
-47 47 -44 113 8 145 18 11 41 17 52 14 11 -2 34 -5 50 -5z m325 -85 c0 -78
-2 -85 -20 -85 -18 0 -20 7 -20 85 0 78 2 85 20 85 18 0 20 -7 20 -85z m305
-55 c18 -20 18 -21 -3 -43 l-22 -21 -22 21 c-21 22 -21 23 -3 43 10 11 21 20
25 20 4 0 15 -9 25 -20z m2793 -1818 c7 -48 -48 -70 -82 -33 -14 16 -15 23 -6
41 9 17 19 20 48 18 30 -2 38 -7 40 -26z m1122 -42 c0 -67 1 -70 19 -60 25 13
87 13 111 0 26 -14 40 -71 40 -167 l0 -83 -45 0 -44 0 -3 91 c-2 75 -6 94 -20
103 -13 8 -23 8 -35 0 -15 -9 -19 -28 -21 -103 l-3 -91 -44 0 -45 0 0 190 0
190 45 0 45 0 0 -70z m3230 -120 l0 -190 -45 0 -45 0 0 190 0 190 45 0 45 0 0
-190z m-6321 154 c51 -36 62 -122 21 -172 -24 -29 -79 -52 -125 -52 l-35 0 0
-60 0 -60 -45 0 -45 0 0 180 0 180 103 0 c79 0 108 -4 126 -16z m3871 -39 l0
-55 -35 0 -35 0 0 55 0 55 35 0 35 0 0 -55z m-2059 -45 c25 0 29 -4 29 -29 0
-25 -4 -30 -27 -33 -27 -3 -28 -6 -31 -61 -3 -64 10 -91 40 -84 15 4 18 -1 18
-29 0 -34 0 -34 -47 -34 -76 1 -87 16 -93 118 -5 82 -6 87 -28 90 -32 5 -28
55 6 60 17 3 22 10 22 32 0 24 5 29 38 37 l37 9 3 -38 c3 -35 6 -38 33 -38z
m1099 34 c0 -30 3 -34 25 -34 21 0 25 -5 25 -30 0 -25 -4 -30 -25 -30 -26 0
-26 -1 -23 -72 3 -68 4 -73 26 -72 18 0 22 -5 22 -33 0 -33 -1 -33 -45 -33
-35 0 -52 6 -70 25 -22 22 -25 32 -25 105 0 73 -2 80 -20 80 -16 0 -20 7 -20
30 0 23 4 30 20 30 15 0 20 7 20 28 0 24 5 30 38 38 47 13 52 10 52 -32z m790
0 c0 -30 3 -34 25 -34 21 0 25 -5 25 -30 0 -25 -4 -30 -25 -30 -26 0 -26 -1
-23 -72 3 -68 4 -73 26 -72 18 0 22 -5 22 -33 0 -33 -1 -33 -45 -33 -35 0 -52
6 -70 25 -22 22 -25 32 -25 105 0 73 -2 80 -20 80 -16 0 -20 7 -20 30 0 23 4
30 20 30 15 0 20 7 20 28 0 24 5 30 38 38 47 13 52 10 52 -32z m-3530 -50 c0
-14 1 -14 16 0 8 9 29 16 45 16 27 0 29 -3 29 -36 0 -34 -2 -36 -25 -30 -17 4
-31 0 -45 -14 -17 -17 -20 -33 -20 -100 l0 -80 -45 0 -45 0 0 123 c0 68 3 127
7 130 3 4 24 7 45 7 28 0 38 -4 38 -16z m339 -9 c75 -63 60 -196 -26 -231 -18
-8 -52 -14 -75 -14 -134 0 -188 166 -82 249 41 32 142 30 183 -4z m269 -12 c4
-37 4 -37 -34 -22 -34 12 -74 4 -74 -15 0 -8 15 -20 34 -26 57 -18 86 -47 86
-84 0 -47 -37 -78 -99 -84 -79 -7 -101 2 -101 42 l0 34 40 -14 c30 -11 46 -11
61 -3 28 15 20 30 -26 46 -57 19 -75 40 -75 84 0 58 35 81 119 77 l66 -3 3
-32z m138 22 c5 -13 8 -13 21 0 9 9 33 15 62 15 37 0 52 -5 70 -24 75 -79 25
-246 -74 -246 -20 0 -45 5 -56 10 -18 10 -19 7 -19 -55 l0 -65 -45 0 -45 0 0
190 0 190 40 0 c27 0 43 -5 46 -15z m435 -13 c24 -21 32 -38 36 -75 l6 -47
-87 0 c-51 0 -86 -4 -86 -10 0 -5 10 -20 21 -31 21 -21 65 -23 112 -4 14 6 17
2 17 -24 0 -38 -26 -51 -99 -51 -129 0 -184 148 -91 242 24 24 36 28 84 28 47
0 61 -4 87 -28z m279 -14 c0 -33 -3 -39 -12 -30 -22 22 -75 14 -97 -14 -28
-35 -26 -69 4 -99 26 -27 41 -30 79 -15 25 9 26 8 26 -24 0 -39 -11 -46 -78
-46 -64 0 -105 27 -127 83 -13 36 -15 51 -6 83 22 76 62 104 148 104 l63 0 0
-42z m338 -90 l3 -128 -46 0 -45 0 0 131 0 130 43 -3 42 -3 3 -127z m142 116
c0 -14 2 -14 22 0 12 9 41 16 64 16 34 0 47 -5 63 -26 18 -23 21 -41 21 -130
l0 -104 -40 0 -40 0 0 81 c0 88 -10 119 -40 119 -39 0 -50 -26 -50 -116 l0
-84 -40 0 -40 0 0 130 0 130 40 0 c30 0 40 -4 40 -16z m388 4 c9 -9 12 -9 12
0 0 8 17 12 45 12 l45 0 0 -137 c0 -152 -10 -188 -62 -226 -29 -22 -119 -34
-163 -23 -21 5 -25 12 -25 42 0 30 3 35 18 29 9 -4 33 -9 52 -12 44 -6 90 26
90 63 0 24 -1 24 -22 10 -12 -9 -40 -16 -61 -16 -76 0 -122 86 -97 179 16 60
54 91 110 91 25 0 51 -5 58 -12z m1003 -7 c22 -18 24 -29 29 -130 l5 -111 -42
0 c-24 0 -43 5 -43 11 0 5 -10 3 -22 -5 -25 -18 -70 -21 -97 -6 -10 5 -24 23
-31 40 -23 57 26 120 94 120 35 0 56 10 56 26 0 22 -48 28 -91 11 l-39 -15 0
28 c0 38 22 49 96 50 46 0 68 -5 85 -19z m589 -17 c0 -31 -3 -35 -17 -28 -32
14 -77 10 -81 -7 -2 -10 14 -23 47 -37 114 -52 76 -162 -56 -162 -68 0 -83 9
-83 46 0 39 -2 38 42 20 39 -17 78 -11 78 11 0 7 -21 23 -47 34 -27 11 -54 27
-60 36 -22 28 -15 72 13 98 23 22 37 25 95 25 l69 0 0 -36z m280 20 c0 -14 2
-14 22 0 26 18 90 21 119 6 46 -25 66 -139 34 -200 -27 -53 -96 -72 -157 -45
-16 6 -18 0 -18 -59 l0 -66 -40 0 -40 0 0 190 0 190 40 0 c30 0 40 -4 40 -16z
m429 0 c26 -19 51 -71 51 -109 0 -25 -1 -25 -86 -25 -75 0 -85 -2 -82 -17 2
-10 15 -24 30 -32 22 -12 35 -13 67 -5 41 11 41 11 41 -17 0 -39 -29 -52 -101
-47 -69 5 -103 30 -120 89 -17 54 -3 107 36 146 29 29 39 33 87 33 33 0 62 -6
77 -16z m171 -1 c0 -15 1 -15 18 0 10 10 31 17 45 17 24 0 27 -4 27 -36 0 -31
-3 -35 -20 -29 -13 4 -28 -2 -45 -19 -22 -22 -25 -33 -25 -101 l0 -75 -40 0
-40 0 0 130 0 130 40 0 c31 0 40 -4 40 -17z m300 -19 c0 -31 -3 -35 -17 -29
-37 15 -64 17 -78 5 -12 -10 -13 -16 -4 -26 6 -8 16 -14 21 -14 27 0 78 -34
86 -59 22 -62 -30 -111 -117 -111 -66 0 -81 9 -81 45 l0 33 39 -14 c43 -15 81
-9 81 13 0 7 -21 23 -47 34 -27 11 -54 27 -60 36 -21 27 -15 72 12 98 21 22
33 25 95 25 l70 0 0 -36z m291 -2 c25 -28 29 -40 29 -92 0 -55 -3 -64 -34 -98
-34 -36 -36 -37 -106 -37 -70 0 -72 1 -106 37 -29 33 -34 45 -34 88 0 103 44
142 154 137 63 -3 71 -5 97 -35z m167 22 c8 -14 10 -14 21 0 15 18 82 22 111
6 28 -15 40 -64 40 -161 l0 -89 -45 0 -44 0 -3 91 c-2 75 -6 94 -20 103 -13 8
-23 8 -35 0 -15 -9 -19 -28 -21 -103 l-3 -91 -44 0 -45 0 0 130 0 130 40 0
c25 0 42 -6 48 -16z m416 -10 c25 -25 26 -32 26 -130 l0 -104 -40 0 c-22 0
-40 5 -40 11 0 5 -10 3 -22 -5 -55 -39 -138 -1 -138 63 0 47 36 80 98 90 61 9
69 15 52 36 -16 19 -41 19 -85 1 l-35 -15 0 34 c0 39 7 42 96 44 54 1 65 -2
88 -25z m-3904 -463 c0 -6 -19 -11 -42 -13 -36 -2 -44 -7 -46 -25 -3 -21 1
-23 37 -23 23 0 41 -4 41 -10 0 -5 -18 -10 -40 -10 -39 0 -40 -1 -40 -35 0
-19 -4 -35 -10 -35 -6 0 -10 33 -10 80 l0 80 55 0 c30 0 55 -4 55 -9z m40 -1
c0 -5 -4 -10 -10 -10 -5 0 -10 5 -10 10 0 6 5 10 10 10 6 0 10 -4 10 -10z
m240 -68 l0 -79 -40 -1 c-30 -1 -42 3 -50 17 -26 49 6 110 49 96 18 -5 21 -2
21 19 0 14 5 26 10 26 6 0 10 -33 10 -78z m1070 -3 l0 -80 -42 3 c-36 3 -44 7
-52 31 -15 41 11 83 47 80 22 -1 27 2 27 23 0 13 5 24 10 24 6 0 10 -34 10
-81z m-190 57 c0 -8 6 -16 13 -19 10 -4 10 -7 0 -18 -18 -19 -16 -59 4 -82 17
-18 17 -19 -7 -16 -22 4 -26 10 -31 59 -3 30 -3 63 -1 73 5 20 22 23 22 3z
m371 -3 c1 -10 1 -37 -1 -61 -1 -24 4 -50 11 -58 11 -14 10 -15 -11 -12 -22 3
-26 9 -31 58 -6 65 -2 90 17 90 8 0 15 -8 15 -17z m-1491 -73 c0 -33 -4 -60
-10 -60 -6 0 -10 27 -10 60 0 33 4 60 10 60 6 0 10 -27 10 -60z m108 47 c14
-11 17 -107 2 -107 -5 0 -10 20 -10 44 0 25 -5 48 -10 51 -20 12 -40 -17 -40
-56 0 -22 -4 -39 -10 -39 -6 0 -10 26 -10 58 l0 59 33 0 c17 0 38 -4 45 -10z
m305 -5 c38 -34 11 -109 -36 -100 -24 5 -27 2 -27 -23 0 -16 -4 -29 -10 -29
-6 0 -10 34 -10 83 l0 84 33 0 c17 0 40 -7 50 -15z m97 10 c0 -4 -9 -13 -20
-20 -15 -9 -20 -23 -20 -52 0 -22 -4 -40 -10 -40 -6 0 -10 26 -10 58 0 59 0
59 30 60 17 0 30 -2 30 -6z m92 -9 c20 -18 24 -73 6 -91 -21 -21 -66 -14 -83
12 -38 58 27 125 77 79z m102 11 c9 -3 16 -12 16 -20 0 -17 -12 -18 -28 -2 -9
9 -15 9 -23 1 -9 -9 -2 -16 25 -27 20 -8 36 -21 36 -28 0 -39 -71 -53 -90 -18
-12 23 -8 25 19 8 10 -6 26 -8 37 -3 16 6 14 9 -14 19 -43 15 -58 39 -36 60
16 17 33 20 58 10z m129 -12 c38 -34 11 -109 -36 -100 -24 5 -27 2 -27 -23 0
-16 -4 -29 -10 -29 -6 0 -10 34 -10 83 l0 84 33 0 c17 0 40 -7 50 -15z m119 1
c10 -9 18 -24 18 -35 0 -15 -8 -18 -46 -18 -41 0 -45 -2 -33 -16 9 -11 22 -14
48 -9 31 6 33 5 22 -9 -17 -21 -65 -21 -85 0 -22 21 -20 60 4 84 24 24 47 25
72 3z m118 2 c16 -19 5 -32 -13 -16 -25 20 -48 2 -45 -33 2 -23 8 -32 26 -34
12 -2 22 1 22 7 0 6 7 11 15 11 13 0 14 -4 5 -20 -16 -29 -65 -27 -85 4 -37
55 34 131 75 81z m354 -1 c10 -9 16 -33 16 -60 l0 -44 -44 0 c-47 0 -70 17
-60 44 4 9 20 20 35 23 16 3 32 10 35 14 9 15 -25 22 -41 9 -9 -7 -19 -10 -23
-6 -9 10 27 36 49 36 10 0 25 -7 33 -16z m180 0 c10 -9 16 -33 16 -60 l0 -44
-44 0 c-47 0 -70 17 -60 44 4 9 20 20 35 23 16 3 32 10 35 14 9 15 -25 22 -41
9 -9 -7 -19 -10 -23 -6 -9 10 27 36 49 36 10 0 25 -7 33 -16z m66 -94 c0 -5
-7 -10 -16 -10 -8 0 -12 5 -9 10 3 6 10 10 16 10 5 0 9 -4 9 -10z m475 -367
c83 -45 134 -121 142 -213 7 -69 -23 -145 -78 -199 -71 -72 -63 -71 -559 -71
-426 0 -447 1 -490 21 -50 23 -105 70 -126 110 -56 109 -26 251 71 324 70 54
74 55 555 52 435 -2 446 -2 485 -24z m-1510 6 c57 -16 139 -100 155 -159 40
-150 -46 -293 -194 -321 -34 -6 -264 -9 -613 -7 -512 3 -561 4 -598 21 -85 38
-155 139 -155 224 0 59 34 143 72 180 18 18 53 41 78 52 44 20 63 21 630 21
396 0 598 -4 625 -11z m1905 -179 c0 -19 7 -20 130 -20 150 0 183 -10 206 -65
17 -40 18 -55 4 -55 -5 0 -10 7 -10 15 0 29 -23 64 -49 74 -44 17 -129 24
-207 16 -64 -6 -74 -9 -74 -26 0 -10 -2 -19 -6 -19 -11 0 -84 45 -84 53 0 10
61 47 78 47 6 0 12 -9 12 -20z m172 -232 l12 -23 7 25 c6 22 7 20 8 -12 1 -42
-5 -47 -25 -20 -13 16 -13 16 -14 0 0 -34 -20 -18 -20 17 0 40 14 45 32 13z
m328 -13 c0 -30 -3 -35 -24 -35 -14 0 -28 5 -31 10 -3 6 -16 10 -28 9 -21 0
-21 -1 -2 -9 19 -8 19 -9 -2 -9 -17 -1 -23 5 -23 19 0 25 25 36 45 20 10 -9
15 -9 15 -1 0 6 7 11 15 11 8 0 15 5 15 10 0 6 5 10 10 10 6 0 10 -16 10 -35z
m55 -11 c1 -13 -2 -24 -6 -24 -9 0 -19 41 -13 52 9 14 19 -1 19 -28z m-297 -2
c3 -16 -2 -22 -17 -22 -24 0 -33 13 -25 35 9 23 38 14 42 -13z m82 18 c0 -5
-5 -9 -11 -7 -6 1 -14 -4 -17 -12 -3 -10 0 -12 12 -8 9 4 16 2 16 -3 0 -6 -9
-10 -20 -10 -20 0 -28 28 -13 43 10 11 33 8 33 -3z m36 -6 c-3 -9 -6 -20 -6
-25 0 -5 -4 -9 -10 -9 -5 0 -10 11 -10 25 0 16 6 25 16 25 11 0 14 -5 10 -16z
m141 -21 c-3 -10 -5 -4 -5 12 0 17 2 24 5 18 2 -7 2 -21 0 -30z m-277 -88 c0
-31 -3 -35 -25 -35 -20 0 -25 5 -25 25 0 16 6 25 15 25 8 0 15 5 15 10 0 6 5
10 10 10 6 0 10 -16 10 -35z m420 0 c0 -31 -3 -35 -25 -35 -14 0 -25 5 -25 12
0 9 -3 9 -12 0 -19 -19 -38 -14 -47 11 l-9 22 -10 -25 -11 -25 0 27 c-1 24 3
27 32 26 17 0 38 -5 45 -11 8 -6 12 -6 12 2 0 6 7 11 15 11 8 0 15 5 15 10 0
6 5 10 10 10 6 0 10 -16 10 -35z m-575 4 c4 -6 1 -9 -7 -7 -7 2 -15 0 -16 -4
-1 -5 0 -8 3 -8 3 0 12 0 20 0 8 0 15 7 15 16 0 24 34 12 38 -13 3 -19 -1 -21
-43 -21 -48 1 -60 9 -51 33 6 17 32 20 41 4z m87 -14 c-2 -14 -8 -25 -13 -25
-5 0 -9 11 -9 25 0 14 6 25 14 25 9 0 12 -8 8 -25z m183 0 c0 -29 -33 -31 -45
-3 l-9 23 -7 -22 c-9 -31 -24 -29 -24 2 0 23 3 25 43 22 34 -2 42 -6 42 -22z
m65 -10 c0 -19 -4 -35 -10 -35 -5 0 -10 5 -10 10 0 6 -7 10 -15 10 -9 0 -15 9
-15 25 0 20 5 25 25 25 22 0 25 -4 25 -35z m37 13 c6 30 23 28 23 -3 0 -20 -5
-25 -25 -25 -21 0 -25 5 -24 28 l0 27 11 -25 c11 -25 11 -25 15 -2z m40 -15
c-3 -10 -5 -4 -5 12 0 17 2 24 5 18 2 -7 2 -21 0 -30z m-157 -907 c0 -31 -5
-58 -12 -64 -13 -10 -755 -32 -1075 -32 l-153 0 0 75 0 75 620 0 620 0 0 -54z
m2755 34 c23 -26 33 -119 14 -131 -19 -12 -1251 1 -1266 14 -8 6 -13 34 -13
73 l0 64 623 0 c610 0 624 0 642 -20z m-7852 3 c-40 -2 -106 -2 -145 0 -40 1
-8 3 72 3 80 0 112 -2 73 -3z m322 -2 c-18 -7 -55 -4 -55 5 0 2 17 4 38 3 28
0 32 -2 17 -8z m3321 -109 c-12 -11 -18 7 -10 30 l8 23 4 -23 c2 -13 1 -26 -2
-30z m-551 -383 c4 -6 -1 -17 -11 -24 -22 -16 -84 -20 -84 -5 0 6 0 13 0 18
-1 4 16 10 37 13 21 3 41 7 45 8 4 0 10 -4 13 -10z m-423 -22 c-2 -11 4 -17
15 -17 14 0 15 -2 5 -9 -8 -4 -30 -8 -50 -7 -30 1 -38 5 -40 23 -2 16 3 23 20
26 38 7 53 2 50 -16z m284 4 c-7 -11 -76 -20 -76 -10 0 9 25 16 58 18 13 0 21
-3 18 -8z m-2205 -161 c27 0 49 -4 49 -9 0 -14 -142 -32 -180 -22 -29 7 -31 9
-10 10 14 1 34 8 45 17 11 8 26 12 33 9 8 -3 36 -5 63 -5z m419 -20 c11 -7 7
-10 -18 -10 -20 0 -31 4 -27 10 8 13 26 13 45 0z m-460 -82 c-61 -9 -95 -9
-86 -1 9 10 108 21 121 14 6 -3 -10 -9 -35 -13z m-1837 -130 c-3 -16 -9 -28
-13 -28 -12 0 -18 59 -6 64 18 6 25 -7 19 -36z m237 8 c0 -35 -10 -56 -26 -56
-10 0 -14 12 -14 40 0 33 3 40 20 40 14 0 20 -7 20 -24z m1616 -13 c-10 -10
-85 -12 -92 -2 -3 5 18 9 47 9 29 0 49 -3 45 -7z"/>
<path d="M10727 6133 c-14 -13 -6 -33 13 -33 11 0 20 4 20 9 0 13 -26 32 -33
24z"/>
<path d="M10120 6079 c0 -25 33 -22 38 4 2 12 -3 17 -17 17 -15 0 -21 -6 -21
-21z"/>
<path d="M10420 5450 c0 -27 5 -50 10 -50 6 0 10 5 10 12 0 9 3 9 12 0 22 -22
32 -12 10 11 -12 13 -22 35 -22 50 0 15 -4 27 -10 27 -5 0 -10 -22 -10 -50z"/>
<path d="M10680 5480 c0 -12 -5 -17 -13 -14 -20 7 -40 -21 -32 -46 3 -11 13
-20 21 -20 13 0 13 2 0 16 -18 17 -13 34 10 34 8 0 14 -10 14 -25 0 -47 15
-25 17 25 1 28 -3 50 -8 50 -5 0 -9 -9 -9 -20z"/>
<path d="M10185 5445 c0 -39 3 -45 21 -45 30 0 42 20 37 58 -4 27 -10 32 -32
32 -24 0 -26 -3 -26 -45z m43 23 c-6 -18 -28 -21 -28 -4 0 9 7 16 16 16 9 0
14 -5 12 -12z m2 -43 c0 -8 -7 -15 -15 -15 -8 0 -15 7 -15 15 0 8 7 15 15 15
8 0 15 -7 15 -15z"/>
<path d="M10272 5458 c-17 -17 -15 -45 4 -52 25 -10 33 -7 44 13 7 15 6 23 -6
35 -19 19 -26 20 -42 4z m38 -23 c0 -19 -20 -29 -32 -17 -8 8 -7 16 2 26 14
17 30 12 30 -9z"/>
<path d="M10352 5458 c-31 -31 10 -75 43 -48 19 16 19 25 -1 44 -19 19 -26 20
-42 4z m38 -23 c0 -19 -20 -29 -32 -17 -8 8 -7 16 2 26 14 17 30 12 30 -9z"/>
<path d="M10455 5459 c-11 -17 1 -21 15 -4 8 9 8 15 2 15 -6 0 -14 -5 -17 -11z"/>
<path d="M10534 5458 c-5 -8 -2 -9 9 -5 9 3 19 2 22 -2 2 -5 -4 -11 -15 -14
-30 -8 -26 -37 5 -35 41 4 31 68 -10 68 -2 0 -7 -5 -11 -12z m31 -38 c-3 -5
-10 -10 -16 -10 -5 0 -9 5 -9 10 0 6 7 10 16 10 8 0 12 -4 9 -10z"/>
<path d="M10719 5454 c-15 -18 -2 -48 22 -50 9 -1 10 0 2 3 -20 7 -15 23 7 23
24 0 27 25 4 34 -21 8 -20 8 -35 -10z m36 -4 c3 -5 -1 -10 -10 -10 -9 0 -13 5
-10 10 3 6 8 10 10 10 2 0 7 -4 10 -10z"/>
<path d="M10791 5430 c2 -30 3 -31 6 -7 2 15 10 27 18 27 8 0 16 -12 18 -27
l4 -28 2 28 c0 16 7 27 15 27 8 0 17 -12 19 -27 4 -22 5 -20 3 6 -1 33 -2 34
-43 35 -43 1 -43 1 -42 -34z"/>
<path d="M10910 5456 c-27 -33 18 -72 48 -42 13 13 14 20 6 34 -15 23 -38 26
-54 8z m46 -35 c-11 -18 -36 -13 -36 7 0 10 3 22 7 26 10 10 37 -20 29 -33z"/>
<path d="M1896 5454 c-22 -21 -20 -57 4 -79 17 -15 24 -16 45 -7 19 9 25 19
25 45 0 53 -40 76 -74 41z"/>
<path d="M1503 5463 c-7 -2 -13 -11 -13 -19 0 -10 12 -14 40 -14 38 0 40 2 30
20 -10 19 -31 24 -57 13z"/>
<path d="M1686 5454 c-21 -21 -20 -47 3 -75 16 -20 22 -22 44 -12 34 16 43 48
23 78 -19 29 -47 32 -70 9z"/>
<path d="M3090 3429 l0 -61 32 6 c44 9 58 23 58 60 0 41 -16 56 -57 56 l-33 0
0 -61z"/>
<path d="M3607 3372 c-21 -23 -22 -81 -1 -110 33 -48 94 -11 94 57 0 64 -55
95 -93 53z"/>
<path d="M4159 3373 c-22 -25 -18 -102 5 -119 11 -8 25 -14 31 -14 6 0 20 6
31 14 24 18 28 111 4 126 -23 15 -56 12 -71 -7z"/>
<path d="M4466 3378 c-16 -23 -16 -23 25 -26 48 -4 57 2 43 26 -17 26 -50 26
-68 0z"/>
<path d="M5656 3368 c-46 -66 16 -166 67 -110 20 22 23 102 5 120 -19 19 -55
14 -72 -10z"/>
<path d="M6634 3300 c-31 -12 -39 -30 -21 -48 24 -23 67 -2 67 33 0 26 -11 30
-46 15z"/>
<path d="M7616 3368 c-31 -44 -9 -128 33 -128 45 0 74 95 42 134 -19 23 -57
20 -75 -6z"/>
<path d="M7927 3382 c-25 -28 -21 -32 28 -32 48 0 55 9 29 34 -20 21 -37 20
-57 -2z"/>
<path d="M8653 3382 c-23 -15 -34 -63 -23 -98 13 -38 46 -52 79 -35 27 15 39
77 20 110 -15 26 -53 38 -76 23z"/>
<path d="M9272 3303 c-30 -6 -39 -30 -19 -51 24 -23 67 -2 67 33 0 25 -4 26
-48 18z"/>
<path d="M5680 2895 c-7 -9 -10 -25 -6 -41 5 -19 12 -25 29 -22 25 3 35 41 17
64 -16 18 -24 18 -40 -1z"/>
<path d="M6748 2885 c-9 -21 -9 -29 4 -42 9 -9 24 -13 32 -10 21 8 21 63 0 71
-23 9 -23 8 -36 -19z"/>
<path d="M5870 2896 c-18 -23 -8 -61 17 -64 17 -3 24 3 29 22 4 16 1 32 -6 41
-16 19 -24 19 -40 1z"/>
<path d="M6060 2895 c-6 -7 -10 -24 -8 -37 2 -17 10 -23 28 -23 20 0 26 6 28
27 4 33 -29 56 -48 33z"/>
<path d="M6290 2896 c-18 -23 -8 -61 17 -64 17 -3 24 3 29 22 4 16 1 32 -6 41
-16 19 -24 19 -40 1z"/>
<path d="M6413 2903 c-24 -9 -13 -23 18 -23 27 0 30 2 19 15 -13 16 -17 17
-37 8z"/>
<path d="M6877 2853 c-14 -13 -6 -24 15 -21 27 4 36 28 11 28 -11 0 -23 -3
-26 -7z"/>
<path d="M7057 2853 c-14 -13 -6 -24 15 -21 27 4 36 28 11 28 -11 0 -23 -3
-26 -7z"/>
<path d="M7221 2263 c-5 -10 -5 -36 -1 -58 7 -38 8 -38 9 -8 0 17 7 34 14 37
9 5 9 7 -1 12 -10 5 -10 9 -1 20 8 10 8 14 1 14 -6 0 -15 -8 -21 -17z"/>
<path d="M6864 2258 c-4 -6 4 -21 19 -34 34 -29 34 -42 0 -47 -27 -4 -27 -4 3
-6 43 -2 51 22 16 50 -32 24 -32 32 0 41 22 6 22 6 -4 7 -15 1 -30 -4 -34 -11z"/>
<path d="M6940 2245 c0 -8 7 -15 15 -15 8 0 15 4 15 9 0 5 -7 11 -15 15 -9 3
-15 0 -15 -9z"/>
<path d="M7127 2252 c-2 -4 -2 -24 0 -44 4 -27 10 -38 22 -37 10 0 11 2 4 6
-15 6 -18 53 -3 53 6 0 10 4 10 9 0 11 -28 22 -33 13z"/>
<path d="M7000 2240 c-12 -8 -10 -10 10 -11 l25 0 -22 -11 c-35 -17 -30 -48 7
-48 24 0 30 4 30 21 0 23 -17 59 -28 59 -4 0 -14 -5 -22 -10z m30 -45 c0 -8
-7 -15 -15 -15 -16 0 -20 12 -8 23 11 12 23 8 23 -8z"/>
<path d="M7083 2243 c-8 -3 -12 -20 -12 -41 2 -34 2 -35 6 -7 3 16 10 33 16
37 14 9 6 17 -10 11z"/>
<path d="M7285 2241 c-3 -6 -11 -9 -16 -6 -5 4 -8 -11 -8 -32 1 -27 3 -31 6
-13 2 14 12 31 20 37 9 7 14 15 11 19 -3 3 -9 0 -13 -5z"/>
<path d="M7325 2236 c-10 -7 -16 -22 -13 -37 2 -19 9 -24 33 -26 18 -1 22 1
10 4 -34 9 -41 23 -12 23 20 0 27 5 27 19 0 24 -23 33 -45 17z m35 -16 c0 -5
-9 -10 -20 -10 -11 0 -20 5 -20 10 0 6 9 10 20 10 11 0 20 -4 20 -10z"/>
<path d="M7400 2236 c-19 -24 -9 -61 18 -62 18 -1 19 -1 2 3 -28 6 -25 23 5
23 27 0 33 18 13 38 -16 16 -23 15 -38 -2z m40 -16 c0 -5 -9 -10 -20 -10 -11
0 -20 5 -20 10 0 6 9 10 20 10 11 0 20 -4 20 -10z"/>
<path d="M6940 2203 c0 -12 5 -25 11 -28 16 -11 17 -2 2 25 -12 24 -13 24 -13
3z"/>
<path d="M5362 2225 c0 -34 3 -52 7 -42 6 17 8 17 20 3 7 -9 18 -16 24 -16 6
0 4 7 -5 16 -15 15 -15 19 -1 40 8 13 11 24 5 24 -5 0 -12 -7 -16 -15 -9 -26
-25 -17 -29 18 -2 17 -4 5 -5 -28z"/>
<path d="M5650 2260 c0 -12 -5 -17 -14 -14 -15 6 -46 -21 -46 -39 0 -24 16
-36 48 -35 32 1 32 1 32 55 0 29 -4 53 -10 53 -5 0 -10 -9 -10 -20z m0 -49 c0
-11 -5 -23 -11 -27 -15 -9 -33 12 -26 30 9 23 37 20 37 -3z"/>
<path d="M5090 2220 c0 -49 1 -50 30 -50 33 0 50 24 32 42 -8 8 -8 15 -1 24
16 19 2 34 -32 34 -28 0 -29 -1 -29 -50z m50 25 c0 -8 -7 -15 -15 -15 -8 0
-15 7 -15 15 0 8 7 15 15 15 8 0 15 -7 15 -15z m0 -50 c0 -8 -7 -15 -15 -15
-8 0 -15 7 -15 15 0 8 7 15 15 15 8 0 15 -7 15 -15z"/>
<path d="M5186 2234 c-31 -30 -8 -69 36 -62 30 4 38 46 12 65 -23 17 -29 16
-48 -3z m44 -29 c0 -25 -23 -35 -35 -15 -10 16 2 40 20 40 9 0 15 -9 15 -25z"/>
<path d="M5276 2234 c-20 -19 -20 -38 -2 -54 23 -19 61 -8 64 18 7 44 -32 67
-62 36z m47 -17 c8 -20 -9 -41 -27 -34 -23 9 -21 47 3 47 10 0 21 -6 24 -13z"/>
<path d="M5485 2240 c-3 -6 4 -10 17 -10 l23 0 -25 -13 c-36 -18 -32 -42 8
-44 29 -1 32 2 32 26 0 40 -38 69 -55 41z m35 -39 c0 -12 -20 -25 -27 -18 -7
7 6 27 18 27 5 0 9 -4 9 -9z"/>
<path d="M5696 2234 c-30 -30 -11 -65 34 -63 20 1 21 2 5 6 -34 8 -41 23 -12
23 29 0 35 18 15 38 -16 16 -23 15 -42 -4z m34 -14 c0 -5 -7 -10 -15 -10 -8 0
-15 5 -15 10 0 6 7 10 15 10 8 0 15 -4 15 -10z"/>
<path d="M5771 2205 c1 -37 2 -38 8 -10 3 17 13 30 21 30 8 0 17 -13 21 -30
l6 -30 4 30 c2 18 10 30 19 30 8 0 18 -13 22 -30 6 -26 6 -25 5 10 l-2 40 -52
0 -53 0 1 -40z"/>
<path d="M5914 2242 c-35 -24 -15 -76 27 -70 16 2 25 10 27 26 6 38 -26 64
-54 44z m39 -24 c6 -19 -3 -38 -18 -38 -18 0 -28 17 -21 35 7 18 33 20 39 3z"/>
<path d="M8510 2020 c0 -5 5 -10 10 -10 6 0 10 5 10 10 0 6 -4 10 -10 10 -5 0
-10 -4 -10 -10z"/>
<path d="M8280 2026 c0 -9 5 -16 10 -16 6 0 10 4 10 9 0 6 -4 13 -10 16 -5 3
-10 -1 -10 -9z"/>
<path d="M8256 1921 c-4 -7 -5 -15 -2 -18 9 -9 19 4 14 18 -4 11 -6 11 -12 0z"/>
<path d="M8676 1921 c-4 -7 -5 -15 -2 -18 9 -9 19 4 14 18 -4 11 -6 11 -12 0z"/>
<path d="M8436 1921 c-4 -7 -5 -15 -2 -18 9 -9 19 4 14 18 -4 11 -6 11 -12 0z"/>
<path d="M10156 740 c-70 -27 -146 -97 -146 -134 0 -32 10 -41 76 -74 34 -17
81 -44 105 -59 24 -15 53 -33 63 -39 35 -19 28 -32 -26 -52 -62 -23 -78 -20
-78 17 0 22 -13 35 -79 80 -79 53 -123 62 -84 17 34 -38 53 -75 53 -103 0 -19
3 -24 9 -15 7 11 9 11 14 -1 9 -24 -4 -57 -23 -57 -36 0 -68 39 -90 111 -15
51 -32 83 -60 113 -36 39 -42 41 -95 41 -56 0 -58 -1 -104 -51 -25 -27 -52
-68 -60 -90 -34 -97 -131 -128 -273 -85 -21 6 -55 16 -75 22 -134 39 -173 6
-122 -102 34 -69 57 -97 112 -134 58 -39 93 -44 128 -16 64 49 120 62 176 40
66 -27 73 -33 89 -82 17 -50 17 -51 -6 -69 l-22 -18 30 0 c21 0 32 5 34 17 3
16 4 16 20 0 14 -15 41 -17 192 -17 164 0 175 1 181 19 7 22 20 25 145 41 157
20 318 123 336 214 6 36 -21 136 -38 136 -4 0 -8 7 -8 15 0 8 9 15 20 15 11 0
20 7 20 15 0 8 -5 15 -11 15 -5 0 -7 -4 -4 -10 3 -5 1 -10 -4 -10 -6 0 -11 3
-12 8 0 4 -2 17 -3 29 -3 30 -12 38 -20 18 -3 -9 -2 -13 4 -10 6 3 10 2 10 -3
0 -6 -6 -12 -14 -15 -9 -4 -20 13 -35 51 -12 32 -27 65 -32 74 -5 10 -9 24 -9
31 0 29 -65 86 -123 106 -69 25 -96 25 -161 1z"/>
<path d="M6895 710 c-8 -12 3 -50 14 -50 15 0 33 30 27 45 -6 17 -32 20 -41 5z"/>
<path d="M6981 673 c1 -5 0 -11 -1 -15 -1 -5 -3 -14 -4 -20 0 -7 -17 -14 -38
-16 -37 -3 -52 -20 -42 -47 7 -17 14 -18 47 -6 22 8 24 7 20 -10 -5 -18 -14
-23 -40 -20 -16 2 -24 -13 -28 -52 -2 -18 -9 -66 -16 -107 -13 -83 -14 -93 -8
-262 l4 -118 135 0 c101 0 131 3 122 12 -8 8 -8 17 -1 31 8 13 8 22 0 30 -6 6
-11 27 -11 46 1 30 2 33 11 18 5 -9 7 -22 4 -27 -3 -6 -2 -10 3 -10 5 0 10 23
10 50 0 28 -5 50 -10 50 -5 0 -7 4 -4 9 4 5 1 11 -6 13 -11 4 -15 18 -20 65
-1 12 -6 19 -12 16 -5 -4 -6 10 -1 33 14 76 16 100 7 86 -7 -10 -11 -8 -15 10
-4 12 -7 34 -8 48 -1 23 -2 23 -10 -5 -5 -19 -7 8 -4 75 2 70 1 90 -4 60 l-8
-45 -1 42 c-2 47 -16 62 -31 36 -9 -16 -10 -14 -11 10 0 17 -5 27 -15 27 -8 0
-14 -3 -14 -7z"/>
<path d="M9310 647 c-28 -13 -78 -62 -101 -98 -27 -41 -50 -109 -38 -109 20 0
89 43 89 56 0 7 8 10 18 8 9 -3 30 6 46 19 24 20 30 33 34 80 5 62 0 66 -48
44z"/>
<path d="M9858 636 c24 -8 52 -22 62 -31 10 -9 24 -15 31 -13 22 7 -47 47 -92
53 l-44 5 43 -14z"/>
<path d="M9490 579 c0 -5 5 -7 10 -4 6 3 10 8 10 11 0 2 -4 4 -10 4 -5 0 -10
-5 -10 -11z"/>
<path d="M5067 448 l-29 -32 23 -19 c17 -14 33 -17 58 -13 46 7 48 12 20 39
-13 13 -28 31 -34 41 -9 15 -13 14 -38 -16z"/>
<path d="M4900 451 c-40 -21 -49 -38 -25 -48 11 -4 21 0 27 11 8 14 18 16 45
11 39 -7 42 8 7 31 -17 12 -25 11 -54 -5z"/>
</g>
</svg>
