<?xml version="1.0" standalone="no"?>
<!DOCTYPE svg PUBLIC "-//W3C//DTD SVG 20010904//EN"
 "http://www.w3.org/TR/2001/REC-SVG-20010904/DTD/svg10.dtd">
<svg version="1.0" xmlns="http://www.w3.org/2000/svg"
 width="1257.000000pt" height="618.000000pt" viewBox="0 0 1257.000000 618.000000"
 preserveAspectRatio="xMidYMid meet">

<g transform="translate(0.000000,618.000000) scale(0.100000,-0.100000)"
fill="#000000" stroke="none">
<path d="M3143 6173 c1732 -2 4562 -2 6290 0 1728 1 312 2 -3148 2 -3460 0
-4873 -1 -3142 -2z"/>
<path d="M5550 5765 l0 -134 35 -7 c41 -7 91 10 105 37 15 27 12 92 -6 117
-17 24 -61 30 -95 12 -18 -10 -19 -7 -19 50 0 33 -4 60 -10 60 -6 0 -10 -52
-10 -135z m108 9 c17 -11 22 -25 22 -56 0 -54 -22 -78 -72 -78 l-38 0 0 65 c0
59 2 67 23 75 32 13 40 12 65 -6z"/>
<path d="M5750 5760 c0 -87 4 -140 10 -140 6 0 10 53 10 140 0 87 -4 140 -10
140 -6 0 -10 -53 -10 -140z"/>
<path d="M5828 5804 c-5 -4 -8 -40 -8 -79 0 -57 4 -75 18 -88 23 -21 51 -22
80 -1 20 14 22 14 22 0 0 -9 5 -16 10 -16 6 0 10 39 10 96 0 61 -4 93 -10 89
-5 -3 -10 -34 -10 -69 0 -73 -19 -100 -67 -94 -28 3 -28 4 -33 86 -3 46 -8 80
-12 76z"/>
<path d="M6043 5800 c-56 -23 -58 -126 -4 -167 22 -17 72 -15 96 2 17 14 15
15 -28 9 -52 -7 -87 12 -87 48 0 16 9 18 70 18 39 0 70 4 70 9 0 27 -25 70
-46 80 -29 13 -41 13 -71 1z m71 -21 c14 -11 26 -29 26 -40 0 -17 -7 -19 -60
-19 -53 0 -60 2 -60 19 0 18 43 61 60 61 4 0 19 -9 34 -21z"/>
<path d="M6200 5715 c0 -57 4 -95 10 -95 6 0 10 29 10 68 0 79 18 106 67 100
28 -3 28 -3 31 -85 3 -100 22 -112 22 -15 0 74 16 102 56 102 35 0 44 -21 44
-97 0 -44 4 -73 10 -73 7 0 10 30 8 82 -3 78 -4 83 -31 98 -25 14 -30 13 -57
-2 -28 -16 -32 -16 -58 -1 -26 15 -31 15 -60 0 -27 -13 -32 -13 -32 -1 0 8 -4
14 -10 14 -6 0 -10 -38 -10 -95z"/>
<path d="M6544 5798 c-40 -19 -55 -82 -33 -131 19 -43 86 -61 124 -33 16 12
13 13 -32 9 -44 -5 -52 -3 -67 18 -29 42 -22 49 54 49 77 0 83 6 55 59 -19 38
-59 50 -101 29z m70 -19 c14 -11 26 -29 26 -40 0 -17 -7 -19 -60 -19 -69 0
-77 14 -35 55 29 30 35 31 69 4z"/>
<path d="M6780 5803 c-8 -3 -25 -15 -37 -26 l-23 -20 0 21 c0 12 -4 22 -10 22
-6 0 -10 -37 -10 -90 0 -53 4 -90 10 -90 6 0 10 25 10 56 0 67 10 89 50 102
16 6 30 16 30 21 0 6 -1 11 -2 10 -2 0 -10 -3 -18 -6z"/>
<path d="M6883 5803 c-33 -6 -53 -41 -53 -91 0 -56 33 -92 84 -92 51 0 54 18
4 22 -35 2 -45 8 -60 35 -17 29 -18 35 -4 66 15 38 43 52 82 43 13 -4 24 -2
24 3 0 8 -37 23 -50 20 -3 -1 -15 -4 -27 -6z"/>
<path d="M7265 5800 c-12 -4 -27 -16 -35 -25 -14 -17 -15 -16 -21 6 -4 13 -7
-19 -6 -71 0 -84 1 -88 6 -34 6 62 29 104 57 104 13 0 29 18 23 24 -2 2 -13 0
-24 -4z"/>
<path d="M7478 5798 c-8 -7 -26 -37 -39 -65 -22 -49 -39 -67 -39 -43 0 9 -38
98 -47 109 -2 2 -5 2 -8 -1 -3 -3 8 -35 25 -72 l30 -67 -30 -59 c-16 -33 -24
-57 -17 -54 9 3 151 264 143 264 -1 0 -9 -6 -18 -12z"/>
<path d="M7006 5738 c1 -35 4 -73 8 -85 10 -31 52 -40 88 -20 24 14 28 14 28
2 0 -8 3 -15 8 -15 4 0 5 42 3 92 l-5 93 -5 -66 c-7 -75 -21 -99 -62 -99 -37
0 -49 24 -49 99 0 34 -3 61 -7 61 -5 0 -8 -28 -7 -62z"/>
<path d="M0 5135 l0 -125 1370 0 c1203 0 1370 -2 1370 -15 0 -19 -48 -31 -71
-17 -27 17 -33 -4 -7 -22 22 -16 22 -16 -16 -16 -31 0 -37 -3 -32 -16 4 -10 2
-14 -6 -11 -7 2 -21 0 -30 -5 -17 -8 -17 -10 -2 -33 15 -23 13 -30 -9 -26 -5
1 -6 -3 -2 -9 3 -5 13 -10 21 -10 26 0 15 -18 -18 -30 -31 -10 -32 -12 -15
-25 11 -7 26 -11 35 -7 15 5 16 4 2 -14 -8 -10 -23 -25 -33 -32 -9 -7 -14 -18
-11 -24 4 -6 0 -14 -7 -19 -9 -7 -5 -7 14 -3 39 9 41 -28 4 -77 -11 -16 -17
-32 -13 -36 4 -5 13 -1 19 8 12 16 57 35 57 24 0 -3 -12 -10 -26 -15 -14 -6
-23 -14 -19 -19 3 -5 1 -12 -5 -16 -6 -4 -7 -13 -1 -23 4 -9 6 -22 4 -28 -2
-7 9 -14 26 -16 16 -2 28 -1 25 3 -2 4 0 10 6 14 5 3 10 -1 10 -10 0 -9 5 -13
10 -10 5 3 10 2 10 -4 0 -5 -6 -11 -12 -14 -7 -2 -9 -8 -5 -13 4 -4 18 -2 30
5 22 14 87 32 87 25 0 -14 -37 -57 -54 -64 -20 -8 -20 -9 3 -9 13 -1 30 7 38
17 8 11 12 12 11 3 -2 -7 3 -16 11 -19 8 -2 11 0 7 6 -4 7 14 10 54 8 50 -1
63 -6 76 -24 10 -15 14 -32 9 -49 -7 -30 2 -39 125 -126 75 -53 186 -97 210
-82 7 4 9 17 5 33 -6 26 -6 26 14 8 11 -10 23 -27 27 -38 4 -15 9 -17 17 -8 9
8 -1 23 -40 61 -46 44 -53 56 -53 89 0 35 2 38 36 44 19 4 38 14 41 22 3 7 14
14 24 14 24 0 25 27 1 34 -17 6 -72 56 -61 56 3 0 20 -11 39 -25 43 -32 46
-31 65 5 12 23 13 35 5 51 -9 15 -8 24 0 35 18 21 4 44 -28 44 -15 0 -34 6
-41 13 -10 10 -12 7 -9 -13 2 -16 14 -30 33 -40 l30 -15 -32 -3 c-33 -3 -42 2
-144 96 -53 48 -66 86 -38 105 9 7 23 25 30 40 7 15 16 27 21 27 4 0 8 9 8 19
0 26 43 35 78 17 38 -19 62 -48 78 -93 17 -50 17 -64 -1 -57 -23 9 -19 -39 5
-61 11 -10 20 -13 20 -7 0 7 9 12 20 12 11 0 20 5 20 10 0 6 11 15 25 20 21 8
25 16 23 42 -2 25 -17 48 -64 97 -35 34 -67 60 -72 57 -5 -3 -15 1 -21 8 -8
10 -9 16 -1 21 15 9 2 25 -20 25 -13 0 -17 5 -14 14 6 16 -12 16 -35 2 -11 -7
-13 -5 -6 10 5 10 9 38 10 62 l0 42 4663 0 4662 0 0 125 0 125 -6285 0 -6285
0 0 -125z m5203 38 c-26 -5 -31 -23 -8 -23 8 0 15 -4 15 -10 0 -5 -6 -10 -14
-10 -8 0 -17 -6 -19 -12 -3 -7 -6 4 -6 25 -1 34 1 37 27 36 23 -2 24 -2 5 -6z
m87 -8 c9 -11 10 -18 1 -28 -6 -8 -7 -18 -3 -23 4 -4 -1 -2 -11 6 -16 12 -20
12 -28 -1 -6 -10 -9 -3 -9 24 0 30 4 37 19 37 10 0 24 -7 31 -15z m53 8 c-13
-2 -23 -9 -23 -14 0 -5 10 -10 23 -10 l22 -2 -22 -4 c-28 -5 -30 -23 -3 -23
11 0 20 -5 20 -11 0 -6 -10 -9 -22 -7 -19 2 -24 10 -26 41 -3 35 -2 37 25 36
23 -2 24 -2 6 -6z m70 0 c-27 -5 -31 -22 -5 -24 16 -1 16 -2 0 -6 -24 -6 -23
-23 2 -23 11 0 20 -4 20 -10 0 -5 -11 -10 -25 -10 -22 0 -25 4 -25 40 0 37 2
40 28 39 23 -2 24 -2 5 -6z m111 -1 c3 -5 -5 -8 -17 -8 -15 1 -23 -6 -25 -21
-3 -17 2 -23 16 -23 11 0 23 6 25 13 3 7 6 5 6 -6 1 -27 -28 -33 -51 -10 -16
17 -18 24 -9 42 12 21 45 29 55 13z m33 -44 c-2 -13 -4 -5 -4 17 -1 22 1 32 4
23 2 -10 2 -28 0 -40z m61 45 c-10 -2 -18 -11 -18 -19 0 -8 4 -13 9 -9 5 3 12
1 16 -5 3 -5 -1 -10 -9 -10 -9 0 -16 -4 -16 -10 0 -5 -4 -10 -10 -10 -5 0 -10
16 -10 35 0 32 3 35 28 34 16 -1 20 -3 10 -6z m75 0 c-7 -2 -13 -18 -13 -34 0
-16 -4 -29 -10 -29 -5 0 -10 13 -10 29 0 16 -6 32 -12 34 -7 3 3 5 22 5 19 0
29 -2 23 -5z m45 0 c-24 -6 -23 -20 2 -28 11 -3 20 -12 20 -20 0 -17 -25 -26
-47 -17 -14 5 -12 8 12 13 28 6 29 7 8 14 -34 11 -29 46 6 44 13 -1 13 -2 -1
-6z m72 -19 c0 -22 17 -17 25 9 6 21 7 21 20 -8 8 -16 14 -25 15 -19 0 5 7 19
15 30 13 17 13 15 3 -18 -13 -43 -25 -48 -37 -16 l-8 23 -7 -23 c-10 -31 -22
-28 -35 9 -13 39 -14 42 -1 34 6 -3 10 -13 10 -21z m107 -26 c-2 -13 -4 -5 -4
17 -1 22 1 32 4 23 2 -10 2 -28 0 -40z m66 45 c-7 -2 -13 -18 -13 -34 0 -16
-5 -29 -11 -29 -7 0 -9 10 -7 25 4 17 0 29 -11 35 -12 7 -8 9 19 9 19 0 29 -3
23 -6z m48 -23 c11 0 19 7 19 16 0 8 4 13 8 10 12 -7 13 -66 1 -66 -5 0 -9 7
-9 16 0 10 -7 14 -17 12 -10 -2 -17 -10 -15 -16 1 -7 -2 -12 -8 -12 -5 0 -9
17 -9 38 1 20 3 29 6 20 2 -10 13 -18 24 -18z m127 18 c18 -18 15 -25 -18 -42
l-30 -14 0 34 c0 26 4 34 18 34 10 0 23 -5 30 -12z m54 -46 c12 -2 18 5 21 30
l4 33 1 -36 c2 -26 -3 -39 -14 -43 -25 -9 -44 12 -43 48 l1 31 7 -30 c3 -16
14 -31 23 -33z m103 21 c1 -33 -8 -42 -20 -23 -5 8 -11 7 -21 -1 -12 -9 -14
-5 -14 25 0 35 2 37 28 34 23 -3 27 -8 27 -35z m75 27 c0 -5 -6 -7 -12 -5 -20
7 -42 -11 -35 -29 4 -9 16 -16 29 -16 16 0 19 -3 11 -11 -8 -8 -17 -8 -32 0
-23 13 -28 40 -9 59 14 14 48 16 48 2z m50 -20 c10 0 21 8 23 18 3 9 5 -1 5
-23 0 -22 -2 -32 -5 -22 -2 9 -13 17 -23 17 -10 0 -21 -8 -23 -17 -3 -10 -5 0
-5 22 0 22 2 32 5 23 2 -10 13 -18 23 -18z m98 -7 c9 -27 8 -28 -23 -28 -30 0
-32 2 -24 24 19 49 30 50 47 4z m50 30 c-24 -6 -23 -20 2 -28 11 -3 20 -13 20
-21 0 -18 -25 -29 -42 -18 -9 6 -6 10 12 15 l25 7 -22 7 c-34 11 -29 46 6 44
13 -1 13 -2 -1 -6z m62 -5 l-25 -11 25 -6 25 -7 -25 -8 c-25 -8 -25 -9 -2 -13
12 -2 22 -9 22 -14 0 -6 -10 -9 -22 -7 -19 2 -24 10 -26 41 -3 35 -2 37 25 36
l28 0 -25 -11z m140 -14 c13 -32 -3 -56 -34 -52 -16 2 -21 11 -22 33 -2 38 2
45 27 45 12 0 23 -10 29 -26z m69 12 c7 -8 8 -22 3 -36 -6 -16 -11 -20 -16
-11 -6 9 -11 9 -22 0 -12 -9 -14 -5 -14 25 0 29 4 36 19 36 10 0 24 -6 30 -14z
m75 8 c21 -8 21 -48 0 -65 -20 -17 -48 -1 -52 31 -5 31 19 47 52 34z m46 -20
c0 -22 17 -17 25 9 6 21 7 21 20 -8 l13 -30 11 25 12 25 -6 -25 c-2 -14 -5
-28 -5 -32 0 -17 -21 -7 -30 15 l-9 22 -7 -22 c-9 -32 -20 -29 -33 8 -13 39
-14 42 -1 34 6 -3 10 -13 10 -21z m140 16 c0 -5 -7 -7 -15 -4 -22 9 -18 -5 6
-25 19 -15 19 -18 6 -30 -12 -9 -21 -10 -34 -2 -16 9 -14 10 12 11 l30 1 -27
15 c-17 9 -25 20 -22 29 7 16 44 21 44 5z m53 3 c-27 -5 -31 -22 -5 -24 16 -1
16 -2 0 -6 -24 -6 -23 -23 2 -23 11 0 20 -5 20 -11 0 -6 -10 -9 -22 -7 -19 2
-24 10 -26 41 -3 35 -2 37 25 36 23 -2 24 -2 6 -6z m107 -14 c0 12 4 19 10 16
12 -7 13 -65 2 -65 -5 0 -17 9 -28 21 l-19 21 -6 -24 c-6 -18 -7 -14 -8 16
l-1 39 25 -23 25 -23 0 22z m84 15 c21 -8 21 -48 0 -65 -20 -17 -48 -1 -52 31
-5 31 19 47 52 34z m46 -20 c0 -22 17 -17 25 9 6 21 7 21 20 -8 8 -16 14 -25
15 -19 0 5 7 19 15 30 13 17 13 15 3 -18 -13 -43 -25 -48 -37 -16 l-8 23 -7
-23 c-10 -31 -22 -28 -35 9 -13 39 -14 42 -1 34 6 -3 10 -13 10 -21z m-4520
-369 c-7 -8 -17 -15 -22 -15 -6 0 -5 7 2 15 7 8 17 15 22 15 6 0 5 -7 -2 -15z
m147 -242 c-3 -3 -13 1 -21 10 -8 8 -12 17 -9 20 3 3 12 -1 20 -9 9 -8 13 -18
10 -21z m307 -78 c11 -8 15 -15 10 -15 -6 0 -19 7 -30 15 -10 8 -14 14 -9 14
6 0 19 -6 29 -14z"/>
<path d="M5250 5155 c0 -8 7 -15 15 -15 8 0 15 7 15 15 0 8 -7 15 -15 15 -8 0
-15 -7 -15 -15z"/>
<path d="M6120 5155 c0 -10 7 -15 18 -13 21 4 19 22 -2 26 -10 2 -16 -3 -16
-13z"/>
<path d="M6277 5164 c-13 -13 -7 -24 14 -24 11 0 19 5 17 12 -5 14 -22 21 -31
12z"/>
<path d="M6511 5144 c0 -11 3 -14 6 -6 3 7 2 16 -1 19 -3 4 -6 -2 -5 -13z"/>
<path d="M6750 5160 c0 -5 7 -10 15 -10 8 0 15 5 15 10 0 6 -7 10 -15 10 -8 0
-15 -4 -15 -10z"/>
<path d="M6750 5130 c0 -5 9 -10 21 -10 11 0 17 5 14 10 -3 6 -13 10 -21 10
-8 0 -14 -4 -14 -10z"/>
<path d="M6820 5155 c0 -10 7 -15 18 -13 21 4 19 22 -2 26 -10 2 -16 -3 -16
-13z"/>
<path d="M6897 5164 c-4 -4 -7 -16 -7 -26 0 -13 7 -18 26 -18 21 0 25 4 22 22
-3 23 -27 35 -41 22z"/>
<path d="M7327 5164 c-4 -4 -7 -16 -7 -26 0 -13 7 -18 26 -18 21 0 25 4 22 22
-3 23 -27 35 -41 22z"/>
<path d="M3178 4704 c-30 -9 -20 -31 26 -58 58 -34 93 -34 108 -1 9 21 9 29
-3 40 -15 15 -102 27 -131 19z m79 -40 c-3 -3 -12 -4 -19 -1 -8 3 -5 6 6 6 11
1 17 -2 13 -5z"/>
<path d="M2885 4310 c-3 -5 -1 -10 4 -10 6 0 11 5 11 10 0 6 -2 10 -4 10 -3 0
-8 -4 -11 -10z"/>
<path d="M2895 4270 c-22 -24 -18 -29 15 -19 14 4 19 7 11 8 -7 1 -11 7 -7 16
7 20 3 19 -19 -5z"/>
<path d="M2112 3939 c-13 -5 -35 -6 -48 -3 -15 4 -24 2 -24 -6 0 -6 -4 -9 -9
-6 -9 6 -132 -12 -141 -20 -3 -3 3 -12 13 -19 17 -13 17 -14 -4 -20 -16 -5
-18 -9 -9 -15 7 -4 10 -15 7 -23 -5 -13 -1 -14 24 -5 36 12 79 3 79 -18 0 -11
-6 -13 -20 -9 -14 5 -20 2 -20 -9 0 -9 -4 -16 -8 -16 -5 0 -17 -7 -28 -15 -10
-8 8 -4 41 9 33 13 62 23 64 21 2 -2 -12 -24 -30 -49 -18 -25 -30 -49 -26 -52
3 -4 28 9 54 29 56 40 111 56 124 36 8 -12 10 -12 18 0 6 9 11 10 15 2 4 -6
25 -11 46 -11 30 0 43 6 59 26 34 44 22 114 -20 114 -20 0 -92 41 -104 60 -7
12 -22 12 -53 -1z"/>
<path d="M1477 3610 c3 -179 9 -417 13 -530 6 -155 7 -125 3 120 -3 179 -9
417 -13 530 -6 154 -7 125 -3 -120z"/>
<path d="M1835 3890 c3 -5 15 -10 26 -10 11 0 17 5 14 10 -3 6 -15 10 -26 10
-11 0 -17 -4 -14 -10z"/>
<path d="M1820 3800 c0 -5 7 -10 16 -10 8 0 12 5 9 10 -3 6 -10 10 -16 10 -5
0 -9 -4 -9 -10z"/>
<path d="M1860 3746 c0 -2 7 -7 16 -10 8 -3 12 -2 9 4 -6 10 -25 14 -25 6z"/>
<path d="M2765 3719 c-4 -6 -5 -12 -2 -15 2 -3 7 2 10 11 7 17 1 20 -8 4z"/>
<path d="M4103 3663 c9 -2 25 -2 35 0 9 3 1 5 -18 5 -19 0 -27 -2 -17 -5z"/>
<path d="M4180 3645 c0 -23 4 -25 43 -25 23 0 49 -5 57 -11 11 -7 -7 -8 -60
-4 -41 4 -79 11 -84 16 -6 5 -1 9 12 9 12 0 22 5 22 10 0 14 -23 12 -56 -5
-16 -8 -41 -15 -56 -15 -25 0 -28 -3 -28 -35 0 -47 23 -101 49 -114 17 -9 24
-7 45 16 17 18 22 30 14 34 -6 4 13 9 43 11 30 2 56 3 59 0 2 -2 -3 -17 -13
-34 -16 -29 -17 -32 -1 -49 9 -10 20 -17 24 -14 10 6 18 -145 30 -520 12 -400
28 -818 35 -920 2 -44 5 -164 6 -267 1 -177 2 -188 20 -188 11 0 19 7 19 18 0
9 -4 134 -10 277 -5 143 -14 382 -20 530 -6 149 -17 452 -26 674 l-15 404 31
59 c34 68 36 76 15 58 -13 -11 -15 -8 -17 16 0 16 -1 35 -1 42 1 21 -58 52
-99 52 -34 0 -38 -3 -38 -25z"/>
<path d="M2650 3597 c-14 -8 -31 -12 -39 -9 -10 3 -10 0 1 -17 23 -37 70 -38
111 -3 20 18 22 29 5 29 -7 0 -22 3 -33 6 -11 4 -31 1 -45 -6z"/>
<path d="M2820 3558 c-12 -22 -12 -22 6 -6 10 10 15 20 12 24 -4 3 -12 -5 -18
-18z"/>
<path d="M3510 3553 c0 -5 5 -15 10 -23 8 -12 10 -11 10 8 0 12 -4 22 -10 22
-5 0 -10 -3 -10 -7z"/>
<path d="M3568 3506 c-15 -21 -15 -24 4 -54 11 -18 21 -32 22 -32 3 0 -2 101
-5 105 -2 2 -11 -7 -21 -19z"/>
<path d="M2727 3483 c-4 -3 -7 -11 -7 -17 0 -6 5 -5 12 2 6 6 9 14 7 17 -3 3
-9 2 -12 -2z"/>
<path d="M2660 3418 c0 -19 2 -20 10 -8 13 19 13 30 0 30 -5 0 -10 -10 -10
-22z"/>
<path d="M3620 3396 c-8 -10 -8 -21 -2 -32 8 -14 10 -11 14 15 5 36 5 36 -12
17z"/>
<path d="M3889 3223 c-13 -16 -12 -17 4 -4 9 7 17 15 17 17 0 8 -8 3 -21 -13z"/>
<path d="M3724 3038 l-29 -33 33 29 c30 28 37 36 29 36 -2 0 -16 -15 -33 -32z"/>
<path d="M1504 2680 c0 -80 2 -112 3 -72 2 39 2 105 0 145 -1 39 -3 7 -3 -73z"/>
<path d="M3420 2687 c0 -7 22 -44 48 -83 44 -64 102 -204 102 -246 0 -12 -8
-18 -23 -18 -27 0 -116 56 -124 77 -3 8 -16 19 -29 24 -17 6 -24 16 -24 36 0
25 -3 23 -21 -17 -12 -25 -40 -95 -64 -155 -23 -61 -60 -141 -83 -179 -22 -37
-46 -90 -51 -118 -14 -61 -59 -115 -190 -228 -36 -30 -73 -63 -83 -72 -10 -10
-21 -18 -25 -19 -23 -3 -83 -81 -97 -127 l-8 -23 106 2 c80 1 106 5 110 16 6
15 65 43 91 43 10 0 15 -10 15 -30 l0 -30 178 0 c136 0 179 3 179 13 9 183 41
269 111 302 45 21 50 33 29 68 -16 28 -16 83 0 80 9 -2 11 6 7 26 -4 16 -1 32
5 35 6 4 8 12 5 18 -5 7 -1 9 9 5 12 -4 17 1 19 21 3 29 38 45 38 18 0 -9 -5
-16 -12 -16 -9 0 -9 -3 -1 -11 6 -6 9 -28 6 -49 -5 -32 -2 -40 17 -50 21 -11
22 -11 16 27 -3 21 -8 70 -12 108 -16 182 -65 387 -99 415 -8 6 -25 31 -39 54
-26 45 -106 107 -106 83z"/>
<path d="M1514 2385 c0 -55 1 -76 3 -47 2 29 2 74 0 100 -2 26 -3 2 -3 -53z"/>
<path d="M51 2351 c-11 -7 -10 -24 7 -102 12 -52 24 -109 27 -126 5 -27 11
-33 31 -33 28 0 27 13 -2 74 -8 16 -14 35 -14 43 0 7 -4 21 -9 31 -32 63 -41
103 -25 109 6 2 16 -8 22 -22 15 -33 15 -38 0 -29 -7 4 -9 3 -5 -1 4 -5 14
-10 21 -11 11 -1 11 5 -2 37 -15 39 -26 46 -51 30z"/>
<path d="M180 2228 c0 -67 20 -138 39 -138 28 0 31 10 16 47 -8 20 -15 45 -15
57 0 11 -9 32 -20 46 l-20 25 0 -37z"/>
<path d="M120 2229 c0 -5 5 -7 10 -4 6 3 10 8 10 11 0 2 -4 4 -10 4 -5 0 -10
-5 -10 -11z"/>
<path d="M1990 2152 c-25 -2 -49 -7 -54 -12 -5 -5 1 -6 14 -3 15 4 21 2 16 -5
-3 -6 2 -13 11 -15 10 -3 0 -5 -23 -4 -35 1 -40 4 -36 19 2 10 -1 18 -7 18 -6
0 -11 -6 -11 -14 0 -9 -7 -12 -20 -9 -11 3 -17 10 -13 17 3 6 0 5 -8 -2 -12
-11 -12 -14 1 -22 10 -7 -3 -9 -42 -7 -52 2 -57 4 -52 21 6 18 2 19 -71 13
-43 -4 -98 -7 -122 -7 l-43 0 -2 -57 -2 -58 -3 53 c-6 82 -27 62 -31 -29 -2
-54 1 -76 11 -84 10 -7 16 -46 20 -132 6 -106 5 -123 -9 -131 -17 -9 -16 -44
1 -42 6 0 13 -21 17 -47 3 -27 6 44 5 156 l-2 205 80 3 c108 4 430 22 537 29
81 6 86 5 82 -12 -2 -11 0 -32 5 -49 9 -28 9 -29 10 -5 1 19 3 22 11 10 15
-23 18 -10 21 75 2 79 -2 88 -30 77 -8 -3 -17 0 -19 6 -2 8 -30 12 -79 12 -54
0 -74 3 -71 12 3 7 15 15 29 19 20 6 17 7 -14 8 -23 1 -36 -3 -32 -9 3 -5 0
-10 -9 -10 -8 0 -16 3 -18 8 -1 4 -23 6 -48 4z m65 -22 c13 -6 15 -9 5 -9 -8
-1 -25 -4 -36 -7 -14 -4 -23 0 -27 10 -7 18 23 21 58 6z m212 -85 c0 -8 -4
-15 -9 -15 -4 0 -8 7 -8 15 0 8 4 15 8 15 5 0 9 -7 9 -15z m0 -47 c-3 -8 -6
-5 -6 6 -1 11 2 17 5 13 3 -3 4 -12 1 -19z"/>
<path d="M1238 2114 c-4 -3 -73 -5 -155 -5 -122 0 -279 -13 -223 -18 13 -1 13
-2 0 -11 -19 -12 -50 -13 -50 -1 0 5 8 12 18 14 9 3 -21 5 -68 5 -59 0 -76 -3
-55 -8 17 -4 22 -8 13 -9 -10 0 -18 -5 -18 -11 0 -14 -27 -13 -32 1 -3 8 -9 7
-19 -3 -11 -12 -58 -16 -214 -22 -158 -5 -196 -4 -180 6 11 7 32 11 47 9 14
-1 29 3 33 9 5 9 -25 11 -114 8 -71 -2 -122 -7 -122 -13 -1 -5 14 -8 32 -7 19
2 31 0 26 -4 -4 -4 -35 -9 -70 -11 -34 -2 -68 -6 -74 -8 -10 -3 -13 -47 -13
-174 l0 -169 78 -7 c42 -3 114 -10 159 -16 45 -5 109 -9 142 -8 l60 2 -18 26
c-18 25 -26 55 -38 134 -5 36 -4 37 28 38 19 1 71 1 117 -1 63 -2 88 2 108 15
19 12 23 20 15 28 -30 30 -11 35 165 42 97 4 188 7 202 7 15 0 31 3 36 6 6 3
56 4 113 3 57 -1 149 1 204 5 l100 7 -2 51 c-3 65 -35 99 -89 94 -19 -1 -41
-8 -48 -15 -16 -15 -32 -17 -32 -4 0 5 8 12 18 14 9 3 -4 5 -29 6 -25 0 -48
-2 -51 -5z m36 -25 c4 -4 -3 -6 -17 -6 -20 0 -23 2 -14 12 7 7 14 10 17 7 3
-4 9 -10 14 -13z m141 11 c3 -5 0 -7 -9 -4 -8 3 -24 1 -35 -5 -17 -10 -20 -9
-15 4 7 17 49 21 59 5z m-638 -18 c11 8 12 7 7 -6 -8 -21 -44 -21 -44 1 0 13
3 14 12 5 8 -8 15 -9 25 0z m116 -19 c-7 -2 -19 -2 -25 0 -7 3 -2 5 12 5 14 0
19 -2 13 -5z"/>
<path d="M353 2075 c0 -18 9 -19 24 -4 6 6 17 8 23 4 17 -10 80 -14 80 -5 0
11 -39 20 -86 20 -30 0 -41 -4 -41 -15z"/>
<path d="M21 2059 c18 -11 46 -11 53 0 3 5 -10 9 -30 9 -25 0 -33 -3 -23 -9z"/>
<path d="M2271 1893 c-11 -12 -15 -13 -22 -1 -6 8 -8 -4 -8 -32 1 -37 2 -41 9
-20 l8 25 2 -25 c1 -19 4 -15 15 20 16 50 16 54 -4 33z"/>
<path d="M2130 1794 c-15 -3 -293 -47 -385 -61 -46 -6 -47 -7 -20 -13 17 -4
41 -3 54 2 13 5 55 11 95 14 39 3 100 10 136 14 46 7 68 6 79 -3 8 -7 16 -11
18 -9 16 11 34 -4 43 -38 6 -22 15 -40 20 -40 17 0 12 -70 -5 -76 -8 -4 -15
-12 -15 -20 0 -9 -19 -14 -62 -17 -35 -2 0 -3 77 -4 77 0 128 2 113 4 -31 5
-31 6 -28 146 2 99 -2 107 -58 106 -26 -1 -54 -3 -62 -5z"/>
<path d="M1638 1713 c7 -3 16 -2 19 1 4 3 -2 6 -13 5 -11 0 -14 -3 -6 -6z"/>
<path d="M1598 1703 c7 -3 16 -2 19 1 4 3 -2 6 -13 5 -11 0 -14 -3 -6 -6z"/>
<path d="M1360 1670 l-25 -8 27 -1 c15 -1 30 4 33 9 7 11 0 11 -35 0z"/>
<path d="M1195 1640 c-3 -5 -2 -10 4 -10 5 0 13 5 16 10 3 6 2 10 -4 10 -5 0
-13 -4 -16 -10z"/>
<path d="M1148 1633 c6 -2 18 -2 25 0 6 3 1 5 -13 5 -14 0 -19 -2 -12 -5z"/>
<path d="M980 1610 c-11 -7 -4 -10 27 -10 23 0 45 5 48 10 8 13 -55 13 -75 0z"/>
<path d="M6000 1331 c14 -4 27 -17 31 -31 6 -21 7 -22 8 -4 1 26 -17 44 -43
43 -18 -1 -17 -2 4 -8z"/>
<path d="M6182 1328 c-36 -36 11 -96 49 -62 23 21 24 37 3 58 -19 19 -36 20
-52 4z"/>
<path d="M6410 1333 c8 -3 22 -11 30 -17 13 -10 13 -9 1 7 -7 9 -21 17 -30 16
-13 0 -14 -1 -1 -6z"/>
<path d="M6592 1328 c-7 -7 -12 -21 -11 -32 1 -18 2 -17 8 4 4 14 17 27 31 31
21 6 22 7 5 8 -12 1 -26 -4 -33 -11z"/>
<path d="M5953 1305 c-11 -30 46 -71 62 -45 3 6 -1 7 -10 4 -21 -8 -47 16 -42
38 6 22 -1 24 -10 3z"/>
<path d="M6656 1307 c9 -23 -15 -50 -39 -43 -15 4 -17 2 -8 -7 13 -13 38 -2
55 26 8 12 7 20 -2 29 -11 11 -12 10 -6 -5z"/>
<path d="M6371 1299 c-1 -17 29 -49 45 -49 5 0 1 5 -9 11 -10 6 -22 20 -27 32
-6 15 -9 17 -9 6z"/>
<path d="M5420 800 c0 -47 4 -80 10 -80 6 0 10 29 10 67 l0 67 51 -67 c29 -37
55 -67 58 -67 3 0 6 36 6 80 0 44 -3 80 -7 80 -5 0 -8 -30 -8 -67 l0 -67 -51
67 c-29 37 -56 67 -60 67 -5 0 -9 -36 -9 -80z"/>
<path d="M5610 800 l0 -80 58 2 57 2 -52 3 c-53 4 -53 4 -53 38 0 33 1 34 48
38 l47 3 -47 2 c-46 2 -48 3 -48 31 0 29 2 30 53 34 l52 3 -57 2 -58 2 0 -80z"/>
<path d="M5769 806 c14 -40 30 -74 35 -75 5 -1 20 25 32 59 12 34 24 63 26 65
2 3 14 -27 27 -65 12 -39 26 -70 30 -70 4 0 17 30 30 68 12 37 25 73 28 80 2
6 1 12 -4 12 -5 0 -17 -27 -26 -60 -10 -33 -21 -62 -26 -64 -4 -3 -13 12 -20
32 -23 69 -33 92 -41 92 -4 0 -15 -27 -25 -60 -10 -34 -22 -63 -26 -66 -4 -2
-17 25 -29 61 -12 36 -25 65 -29 65 -5 0 4 -33 18 -74z"/>
<path d="M6096 813 c-34 -80 -42 -105 -25 -78 18 29 30 35 72 35 30 0 40 -5
49 -25 6 -14 15 -25 19 -25 4 0 -9 36 -29 80 -20 44 -41 80 -47 80 -5 0 -23
-30 -39 -67z m60 12 c19 -46 19 -45 -21 -45 -19 0 -35 2 -35 4 0 10 31 76 36
76 3 0 12 -16 20 -35z"/>
<path d="M6251 798 c1 -46 4 -71 6 -55 4 22 9 27 34 27 20 0 39 -9 56 -27 l25
-28 -17 28 c-15 26 -15 30 -1 46 39 43 8 91 -60 91 l-44 0 1 -82z m93 56 c33
-33 11 -64 -46 -64 -38 0 -38 0 -38 40 0 39 1 40 34 40 19 0 42 -7 50 -16z"/>
<path d="M6410 800 c0 -47 4 -80 10 -80 6 0 10 11 10 25 0 21 5 25 29 25 20 0
36 -9 49 -25 28 -35 38 -31 13 4 -17 24 -18 30 -6 35 8 3 17 17 21 31 10 41
-19 65 -78 65 l-48 0 0 -80z m98 61 c8 -5 12 -21 10 -37 -3 -26 -7 -29 -45
-32 l-43 -3 0 40 c0 40 1 41 33 41 17 0 38 -4 45 -9z"/>
<path d="M6583 800 c0 -47 2 -66 4 -42 2 23 2 61 0 85 -2 23 -4 4 -4 -43z"/>
<path d="M6630 876 c0 -10 70 -156 75 -156 8 0 76 152 70 158 -2 3 -19 -28
-38 -69 l-33 -73 -29 72 c-17 40 -33 72 -37 72 -5 0 -8 -2 -8 -4z"/>
<path d="M6816 804 c-37 -78 -43 -106 -12 -59 13 20 25 25 56 25 33 0 42 -4
52 -25 6 -14 15 -25 19 -25 8 0 -8 39 -51 133 -7 15 -16 27 -20 27 -5 0 -24
-34 -44 -76z m66 16 l17 -40 -40 0 -39 0 15 36 c8 20 15 38 15 40 0 2 3 4 8 4
4 0 15 -18 24 -40z"/>
<path d="M6972 803 l-2 -83 58 2 57 1 -50 6 -50 6 -6 75 -5 75 -2 -82z"/>
<path d="M7110 865 c-18 -22 -8 -49 25 -63 51 -22 60 -29 60 -42 0 -24 -32
-36 -65 -23 -16 6 -30 7 -30 2 0 -13 46 -22 75 -15 53 13 43 63 -16 82 -67 23
-62 68 8 61 17 -1 29 1 27 5 -9 14 -71 9 -84 -7z"/>
<path d="M9636 435 c-19 -15 -19 -15 2 -15 12 0 22 6 22 13 0 8 3 7 10 -3 5
-8 12 -11 15 -8 9 9 -3 28 -18 28 -7 0 -21 -7 -31 -15z"/>
<path d="M6158 423 c6 -2 18 -2 25 0 6 3 1 5 -13 5 -14 0 -19 -2 -12 -5z"/>
<path d="M9250 178 l0 -148 318 0 317 0 -2 145 -2 146 -315 2 -316 2 0 -147z
m206 27 c6 -23 8 -24 23 -12 17 16 136 18 159 4 7 -5 12 -4 12 2 0 15 33 14
49 -1 8 -8 11 -8 8 -2 -4 7 0 17 8 24 8 7 15 9 16 4 0 -5 1 -26 3 -46 3 -37
-6 -49 -19 -28 -4 7 -14 5 -28 -5 -29 -20 -37 -19 -37 7 0 21 0 21 -14 2 -12
-16 -18 -17 -34 -7 -14 8 -22 9 -30 1 -8 -8 -15 -8 -25 0 -8 7 -17 9 -20 5
-13 -12 -66 -10 -71 4 -7 18 -26 16 -42 -4 -18 -24 -18 -2 -2 44 14 39 35 43
44 8z"/>
<path d="M9430 190 c0 -5 5 -10 11 -10 5 0 7 5 4 10 -3 6 -8 10 -11 10 -2 0
-4 -4 -4 -10z"/>
<path d="M9493 184 c-7 -19 2 -28 22 -21 19 8 19 23 0 31 -9 3 -18 -1 -22 -10z"/>
<path d="M9550 180 c0 -13 5 -20 13 -17 6 2 12 10 12 17 0 7 -6 15 -12 18 -8
2 -13 -5 -13 -18z"/>
<path d="M9605 190 c-3 -5 1 -10 10 -10 9 0 13 5 10 10 -3 6 -8 10 -10 10 -2
0 -7 -4 -10 -10z"/>
<path d="M9670 181 c0 -12 5 -21 10 -21 6 0 10 6 10 14 0 8 -4 18 -10 21 -5 3
-10 -3 -10 -14z"/>
<path d="M9608 163 c7 -3 16 -2 19 1 4 3 -2 6 -13 5 -11 0 -14 -3 -6 -6z"/>
<path d="M9920 325 c0 0 -2 -66 -3 -148 l-2 -147 335 0 335 0 -2 145 -2 146
-330 2 c-182 1 -331 2 -331 2z m217 -114 c4 -17 8 -18 24 -8 14 9 21 9 30 0 9
-9 16 -9 30 0 14 9 21 8 31 -2 11 -12 10 -13 -4 -8 -13 5 -18 1 -18 -13 0 -39
36 -17 43 25 2 19 4 12 5 -20 0 -27 -2 -44 -5 -37 -4 10 -8 10 -19 1 -11 -9
-18 -9 -29 1 -11 9 -18 10 -29 1 -15 -13 -46 -5 -46 12 0 5 -9 2 -19 -7 -32
-29 -56 -17 -59 32 -3 41 -3 42 28 42 23 0 33 -5 37 -19z m173 -31 c0 -16 -4
-30 -10 -30 -5 0 -10 14 -10 30 0 17 5 30 10 30 6 0 10 -13 10 -30z m55 20 c5
-8 11 -7 21 1 20 17 44 3 44 -26 0 -28 -25 -44 -42 -27 -6 6 -17 8 -24 5 -10
-4 -14 3 -14 23 0 33 -16 22 -23 -16 -3 -18 -5 -15 -6 13 -1 30 2 37 18 37 11
0 23 -5 26 -10z"/>
<path d="M10090 190 c0 -19 5 -30 14 -30 20 0 29 16 21 40 -10 32 -35 25 -35
-10z"/>
<path d="M10170 190 c0 -5 5 -10 11 -10 5 0 7 5 4 10 -3 6 -8 10 -11 10 -2 0
-4 -4 -4 -10z"/>
<path d="M10168 163 c7 -3 16 -2 19 1 4 3 -2 6 -13 5 -11 0 -14 -3 -6 -6z"/>
<path d="M10395 190 c-3 -5 1 -10 10 -10 9 0 13 5 10 10 -3 6 -8 10 -10 10 -2
0 -7 -4 -10 -10z"/>
<path d="M10395 160 c4 -6 11 -8 16 -5 14 9 11 15 -7 15 -8 0 -12 -5 -9 -10z"/>
</g>
</svg>
